<mxfile host="Electron" agent="Mozilla/5.0 (Macintosh; Intel Mac OS X 10_15_7) AppleWebKit/537.36 (KHTML, like Gecko) draw.io/24.7.17 Chrome/128.0.6613.36 Electron/32.0.1 Safari/537.36" version="24.7.17" pages="2">
  <diagram name="ASA overview" id="7TQFjj7_i3DxMz_9fUeK">
    <mxGraphModel dx="1340" dy="1290" grid="1" gridSize="10" guides="1" tooltips="1" connect="1" arrows="1" fold="1" page="0" pageScale="1" pageWidth="850" pageHeight="1100" math="0" shadow="0">
      <root>
        <mxCell id="0" />
        <mxCell id="1" parent="0" />
        <mxCell id="4f7uVcdqR3JDxNYSSRZz-2" value="&lt;b&gt;&lt;font style=&quot;font-size: 16px;&quot;&gt;element&lt;/font&gt;&lt;/b&gt;" style="rounded=0;whiteSpace=wrap;html=1;fillColor=#f5f5f5;fontColor=#333333;strokeColor=#666666;" parent="1" vertex="1">
          <mxGeometry x="90" y="125" width="440" height="265" as="geometry" />
        </mxCell>
        <mxCell id="4f7uVcdqR3JDxNYSSRZz-1" value="&lt;font style=&quot;font-size: 16px;&quot;&gt;&lt;b&gt;process_1&lt;/b&gt;&lt;/font&gt;" style="ellipse;whiteSpace=wrap;html=1;fillColor=#d5e8d4;strokeColor=#82b366;" parent="1" vertex="1">
          <mxGeometry x="130" y="160" width="105" height="70" as="geometry" />
        </mxCell>
        <mxCell id="4f7uVcdqR3JDxNYSSRZz-3" value="&lt;b&gt;&lt;font style=&quot;font-size: 16px;&quot;&gt;port_2&lt;/font&gt;&lt;/b&gt;" style="shape=partialRectangle;whiteSpace=wrap;html=1;left=0;right=0;fillColor=#ffe6cc;strokeWidth=3;strokeColor=#d79b00;" parent="1" vertex="1">
          <mxGeometry x="490" y="160" width="80" height="30" as="geometry" />
        </mxCell>
        <mxCell id="4f7uVcdqR3JDxNYSSRZz-4" value="" style="shape=flexArrow;endArrow=classic;startArrow=classic;html=1;rounded=0;fillColor=#dae8fc;strokeColor=#66B2FF;labelBackgroundColor=none;" parent="1" edge="1">
          <mxGeometry width="100" height="100" relative="1" as="geometry">
            <mxPoint x="290" y="70" as="sourcePoint" />
            <mxPoint x="400" as="targetPoint" />
          </mxGeometry>
        </mxCell>
        <mxCell id="4f7uVcdqR3JDxNYSSRZz-5" value="&lt;b&gt;&lt;font style=&quot;font-size: 16px;&quot;&gt;protocol_3&lt;/font&gt;&lt;/b&gt;" style="edgeLabel;html=1;align=center;verticalAlign=middle;resizable=0;points=[];labelBackgroundColor=none;" parent="4f7uVcdqR3JDxNYSSRZz-4" vertex="1" connectable="0">
          <mxGeometry x="0.1" y="-1" relative="1" as="geometry">
            <mxPoint as="offset" />
          </mxGeometry>
        </mxCell>
        <mxCell id="4f7uVcdqR3JDxNYSSRZz-7" value="&lt;font style=&quot;font-size: 16px;&quot;&gt;&lt;b&gt;process_2&lt;/b&gt;&lt;/font&gt;" style="ellipse;whiteSpace=wrap;html=1;fillColor=#d5e8d4;strokeColor=#82b366;" parent="1" vertex="1">
          <mxGeometry x="370" y="222.5" width="105" height="70" as="geometry" />
        </mxCell>
        <mxCell id="4f7uVcdqR3JDxNYSSRZz-8" value="&lt;font style=&quot;font-size: 16px;&quot;&gt;&lt;b&gt;process_3&lt;/b&gt;&lt;/font&gt;" style="ellipse;whiteSpace=wrap;html=1;fillColor=#d5e8d4;strokeColor=#82b366;" parent="1" vertex="1">
          <mxGeometry x="200" y="300" width="105" height="70" as="geometry" />
        </mxCell>
        <mxCell id="4f7uVcdqR3JDxNYSSRZz-9" value="&lt;b&gt;&lt;font style=&quot;font-size: 16px;&quot;&gt;port_1&lt;/font&gt;&lt;/b&gt;" style="shape=partialRectangle;whiteSpace=wrap;html=1;left=0;right=0;fillColor=#ffe6cc;strokeWidth=3;strokeColor=#d79b00;rotation=-90;" parent="1" vertex="1">
          <mxGeometry x="250" y="110" width="80" height="30" as="geometry" />
        </mxCell>
        <mxCell id="4f7uVcdqR3JDxNYSSRZz-10" value="&lt;b&gt;&lt;font style=&quot;font-size: 16px;&quot;&gt;port_3&lt;/font&gt;&lt;/b&gt;" style="shape=partialRectangle;whiteSpace=wrap;html=1;left=0;right=0;fillColor=#ffe6cc;strokeWidth=3;strokeColor=#d79b00;" parent="1" vertex="1">
          <mxGeometry x="490" y="300" width="80" height="30" as="geometry" />
        </mxCell>
        <mxCell id="4f7uVcdqR3JDxNYSSRZz-11" value="" style="shape=flexArrow;endArrow=classic;startArrow=classic;html=1;rounded=0;fillColor=#dae8fc;strokeColor=#66B2FF;labelBackgroundColor=none;" parent="1" edge="1">
          <mxGeometry width="100" height="100" relative="1" as="geometry">
            <mxPoint x="580" y="310" as="sourcePoint" />
            <mxPoint x="690" y="240" as="targetPoint" />
          </mxGeometry>
        </mxCell>
        <mxCell id="4f7uVcdqR3JDxNYSSRZz-12" value="&lt;b&gt;&lt;font style=&quot;font-size: 16px;&quot;&gt;protocol_2&lt;/font&gt;&lt;/b&gt;" style="edgeLabel;html=1;align=center;verticalAlign=middle;resizable=0;points=[];labelBackgroundColor=none;" parent="4f7uVcdqR3JDxNYSSRZz-11" vertex="1" connectable="0">
          <mxGeometry x="0.1" y="-1" relative="1" as="geometry">
            <mxPoint as="offset" />
          </mxGeometry>
        </mxCell>
        <mxCell id="4f7uVcdqR3JDxNYSSRZz-13" value="" style="shape=flexArrow;endArrow=classic;startArrow=classic;html=1;rounded=0;fillColor=#dae8fc;strokeColor=#66B2FF;labelBackgroundColor=none;" parent="1" edge="1">
          <mxGeometry width="100" height="100" relative="1" as="geometry">
            <mxPoint x="580" y="170" as="sourcePoint" />
            <mxPoint x="690" y="100" as="targetPoint" />
          </mxGeometry>
        </mxCell>
        <mxCell id="4f7uVcdqR3JDxNYSSRZz-14" value="&lt;b&gt;&lt;font style=&quot;font-size: 16px;&quot;&gt;protocol_1&lt;/font&gt;&lt;/b&gt;" style="edgeLabel;html=1;align=center;verticalAlign=middle;resizable=0;points=[];labelBackgroundColor=none;" parent="4f7uVcdqR3JDxNYSSRZz-13" vertex="1" connectable="0">
          <mxGeometry x="0.1" y="-1" relative="1" as="geometry">
            <mxPoint as="offset" />
          </mxGeometry>
        </mxCell>
      </root>
    </mxGraphModel>
  </diagram>
  <diagram name="abstraction levels" id="v-4c-xNZiO2r0jTOGqSN">
    <mxGraphModel dx="1340" dy="1290" grid="1" gridSize="10" guides="1" tooltips="1" connect="1" arrows="1" fold="1" page="0" pageScale="1" pageWidth="850" pageHeight="1100" math="0" shadow="0">
      <root>
        <mxCell id="a2yX6ngnl8IPmbnKrzWX-0" />
        <mxCell id="a2yX6ngnl8IPmbnKrzWX-1" parent="a2yX6ngnl8IPmbnKrzWX-0" />
        <mxCell id="a2yX6ngnl8IPmbnKrzWX-2" value="&lt;b&gt;&lt;font style=&quot;font-size: 16px;&quot;&gt;element&lt;/font&gt;&lt;/b&gt;" style="rounded=0;whiteSpace=wrap;html=1;fillColor=#f5f5f5;fontColor=#333333;strokeColor=#666666;" vertex="1" parent="a2yX6ngnl8IPmbnKrzWX-1">
          <mxGeometry x="90" y="125" width="440" height="265" as="geometry" />
        </mxCell>
        <mxCell id="a2yX6ngnl8IPmbnKrzWX-3" value="&lt;font style=&quot;font-size: 16px;&quot;&gt;&lt;b&gt;process_1&lt;/b&gt;&lt;/font&gt;" style="ellipse;whiteSpace=wrap;html=1;fillColor=#d5e8d4;strokeColor=#82b366;" vertex="1" parent="a2yX6ngnl8IPmbnKrzWX-1">
          <mxGeometry x="130" y="160" width="105" height="70" as="geometry" />
        </mxCell>
        <mxCell id="a2yX6ngnl8IPmbnKrzWX-4" value="&lt;b&gt;&lt;font style=&quot;font-size: 16px;&quot;&gt;port_2&lt;/font&gt;&lt;/b&gt;" style="shape=partialRectangle;whiteSpace=wrap;html=1;left=0;right=0;fillColor=#ffe6cc;strokeWidth=3;strokeColor=#d79b00;" vertex="1" parent="a2yX6ngnl8IPmbnKrzWX-1">
          <mxGeometry x="490" y="160" width="80" height="30" as="geometry" />
        </mxCell>
        <mxCell id="a2yX6ngnl8IPmbnKrzWX-5" value="" style="shape=flexArrow;endArrow=classic;startArrow=classic;html=1;rounded=0;fillColor=#dae8fc;strokeColor=#66B2FF;labelBackgroundColor=none;" edge="1" parent="a2yX6ngnl8IPmbnKrzWX-1">
          <mxGeometry width="100" height="100" relative="1" as="geometry">
            <mxPoint x="290" y="70" as="sourcePoint" />
            <mxPoint x="400" as="targetPoint" />
          </mxGeometry>
        </mxCell>
        <mxCell id="a2yX6ngnl8IPmbnKrzWX-6" value="&lt;b&gt;&lt;font style=&quot;font-size: 16px;&quot;&gt;protocol_3&lt;/font&gt;&lt;/b&gt;" style="edgeLabel;html=1;align=center;verticalAlign=middle;resizable=0;points=[];labelBackgroundColor=none;" vertex="1" connectable="0" parent="a2yX6ngnl8IPmbnKrzWX-5">
          <mxGeometry x="0.1" y="-1" relative="1" as="geometry">
            <mxPoint as="offset" />
          </mxGeometry>
        </mxCell>
        <mxCell id="a2yX6ngnl8IPmbnKrzWX-7" value="&lt;font style=&quot;font-size: 16px;&quot;&gt;&lt;b&gt;process_2&lt;/b&gt;&lt;/font&gt;" style="ellipse;whiteSpace=wrap;html=1;fillColor=#d5e8d4;strokeColor=#82b366;" vertex="1" parent="a2yX6ngnl8IPmbnKrzWX-1">
          <mxGeometry x="370" y="222.5" width="105" height="70" as="geometry" />
        </mxCell>
        <mxCell id="a2yX6ngnl8IPmbnKrzWX-8" value="&lt;font style=&quot;font-size: 16px;&quot;&gt;&lt;b&gt;process_3&lt;/b&gt;&lt;/font&gt;" style="ellipse;whiteSpace=wrap;html=1;fillColor=#d5e8d4;strokeColor=#82b366;" vertex="1" parent="a2yX6ngnl8IPmbnKrzWX-1">
          <mxGeometry x="200" y="300" width="105" height="70" as="geometry" />
        </mxCell>
        <mxCell id="a2yX6ngnl8IPmbnKrzWX-9" value="&lt;b&gt;&lt;font style=&quot;font-size: 16px;&quot;&gt;port_1&lt;/font&gt;&lt;/b&gt;" style="shape=partialRectangle;whiteSpace=wrap;html=1;left=0;right=0;fillColor=#ffe6cc;strokeWidth=3;strokeColor=#d79b00;rotation=-90;" vertex="1" parent="a2yX6ngnl8IPmbnKrzWX-1">
          <mxGeometry x="250" y="110" width="80" height="30" as="geometry" />
        </mxCell>
        <mxCell id="a2yX6ngnl8IPmbnKrzWX-10" value="&lt;b&gt;&lt;font style=&quot;font-size: 16px;&quot;&gt;port_3&lt;/font&gt;&lt;/b&gt;" style="shape=partialRectangle;whiteSpace=wrap;html=1;left=0;right=0;fillColor=#ffe6cc;strokeWidth=3;strokeColor=#d79b00;" vertex="1" parent="a2yX6ngnl8IPmbnKrzWX-1">
          <mxGeometry x="490" y="300" width="80" height="30" as="geometry" />
        </mxCell>
        <mxCell id="a2yX6ngnl8IPmbnKrzWX-11" value="" style="shape=flexArrow;endArrow=classic;startArrow=classic;html=1;rounded=0;fillColor=#dae8fc;strokeColor=#66B2FF;labelBackgroundColor=none;" edge="1" parent="a2yX6ngnl8IPmbnKrzWX-1">
          <mxGeometry width="100" height="100" relative="1" as="geometry">
            <mxPoint x="580" y="310" as="sourcePoint" />
            <mxPoint x="690" y="240" as="targetPoint" />
          </mxGeometry>
        </mxCell>
        <mxCell id="a2yX6ngnl8IPmbnKrzWX-12" value="&lt;b&gt;&lt;font style=&quot;font-size: 16px;&quot;&gt;protocol_2&lt;/font&gt;&lt;/b&gt;" style="edgeLabel;html=1;align=center;verticalAlign=middle;resizable=0;points=[];labelBackgroundColor=none;" vertex="1" connectable="0" parent="a2yX6ngnl8IPmbnKrzWX-11">
          <mxGeometry x="0.1" y="-1" relative="1" as="geometry">
            <mxPoint as="offset" />
          </mxGeometry>
        </mxCell>
        <mxCell id="a2yX6ngnl8IPmbnKrzWX-13" value="" style="shape=flexArrow;endArrow=classic;startArrow=classic;html=1;rounded=0;fillColor=#dae8fc;strokeColor=#66B2FF;labelBackgroundColor=none;" edge="1" parent="a2yX6ngnl8IPmbnKrzWX-1">
          <mxGeometry width="100" height="100" relative="1" as="geometry">
            <mxPoint x="580" y="170" as="sourcePoint" />
            <mxPoint x="690" y="100" as="targetPoint" />
          </mxGeometry>
        </mxCell>
        <mxCell id="a2yX6ngnl8IPmbnKrzWX-14" value="&lt;b&gt;&lt;font style=&quot;font-size: 16px;&quot;&gt;protocol_1&lt;/font&gt;&lt;/b&gt;" style="edgeLabel;html=1;align=center;verticalAlign=middle;resizable=0;points=[];labelBackgroundColor=none;" vertex="1" connectable="0" parent="a2yX6ngnl8IPmbnKrzWX-13">
          <mxGeometry x="0.1" y="-1" relative="1" as="geometry">
            <mxPoint as="offset" />
          </mxGeometry>
        </mxCell>
      </root>
    </mxGraphModel>
  </diagram>
</mxfile>
